<?xml version="1.0" standalone="no"?>
<!DOCTYPE svg PUBLIC "-//W3C//DTD SVG 20010904//EN"
 "http://www.w3.org/TR/2001/REC-SVG-20010904/DTD/svg10.dtd">
<svg version="1.0" xmlns="http://www.w3.org/2000/svg"
 width="224.000000pt" height="224.000000pt" viewBox="0 0 224.000000 224.000000"
 preserveAspectRatio="xMidYMid meet">
<metadata>
Created by potrace 1.14, written by Peter Selinger 2001-2017
</metadata>
<g transform="translate(0.000000,224.000000) scale(0.100000,-0.100000)"
fill="#000000" stroke="none">
<path d="M1090 1908 c-11 -18 -37 -66 -58 -106 -31 -62 -35 -74 -22 -82 9 -6
11 -10 3 -10 -7 0 -10 -6 -7 -14 3 -8 0 -17 -7 -21 -9 -6 -10 -1 -7 19 4 21 3
24 -8 15 -8 -6 -11 -15 -8 -20 3 -5 1 -9 -4 -9 -5 0 -13 -8 -16 -17 -3 -10
-12 -27 -19 -38 -31 -49 -51 -91 -49 -102 2 -7 -2 -13 -7 -13 -10 0 -59 -84
-50 -86 2 0 -4 -8 -13 -18 -10 -10 -18 -23 -18 -31 0 -7 -5 -15 -11 -17 -6 -2
-12 -15 -12 -30 -1 -14 -5 -24 -9 -22 -14 9 -28 -32 -15 -46 10 -10 9 -12 -4
-7 -13 4 -25 -9 -48 -56 -17 -34 -44 -84 -60 -112 -56 -96 -91 -165 -91 -179
0 -8 -7 -17 -16 -20 -9 -4 -14 -13 -10 -22 3 -9 2 -12 -4 -9 -6 4 -13 -7 -16
-24 -4 -17 -10 -31 -14 -31 -4 0 -14 -15 -21 -32 -7 -18 -19 -39 -26 -46 -7
-8 -11 -18 -7 -23 3 -5 -1 -12 -10 -15 -8 -3 -12 -12 -9 -20 3 -8 -1 -24 -9
-37 -7 -12 -19 -35 -26 -52 l-12 -30 27 32 28 31 2 -40 c1 -42 10 -59 21 -43
4 6 18 19 32 30 l25 20 -22 -26 c-23 -25 -29 -50 -17 -62 3 -3 20 9 37 26 28
30 29 30 13 4 -21 -34 -11 -34 36 -2 20 14 42 25 47 25 6 0 11 3 11 8 0 4 13
21 28 37 15 17 23 25 18 18 -5 -9 -4 -13 5 -13 16 1 55 50 40 50 -5 0 -11 -5
-13 -12 -3 -9 -6 -9 -11 -1 -5 7 4 17 20 25 19 9 28 21 27 35 -1 13 2 20 6 18
7 -4 22 19 24 38 1 4 7 11 14 16 11 7 11 9 -2 14 -9 4 -13 13 -10 22 5 12 10
13 17 6 13 -13 27 -14 27 -2 0 5 16 37 35 71 30 52 33 65 23 79 -11 14 -11 14
3 3 14 -10 18 -10 24 5 5 10 9 20 9 23 1 3 15 28 32 55 17 28 66 113 109 189
72 128 79 137 92 120 8 -10 62 -107 120 -214 59 -107 117 -214 130 -237 13
-24 20 -44 16 -45 -4 -1 -80 -2 -168 -3 -161 -2 -245 -11 -245 -25 0 -5 -13
-13 -30 -19 -27 -9 -30 -14 -30 -51 0 -33 -4 -43 -20 -47 -24 -7 -25 -20 -3
-45 24 -26 25 -48 3 -48 -10 0 -22 -4 -25 -10 -4 -6 9 -10 32 -10 21 0 56 -3
77 -7 27 -4 37 -3 32 5 -3 6 8 3 26 -5 25 -13 75 -17 252 -19 150 -2 215 0
204 7 -30 17 -22 36 13 31 19 -3 34 0 39 8 11 18 33 1 27 -21 -5 -18 2 -23 20
-16 5 1 7 5 6 10 -2 4 4 7 13 7 8 0 12 -4 9 -10 -7 -12 -1 -12 120 -12 135 0
127 -1 115 22 -6 11 -17 20 -24 20 -16 0 -29 27 -19 42 3 7 1 8 -5 4 -7 -4
-13 -2 -13 3 -5 38 -19 69 -35 75 -8 3 -22 23 -31 43 -9 22 -18 32 -21 25 -2
-8 1 -19 7 -25 20 -20 12 -31 -9 -12 -15 13 -17 22 -10 36 14 24 12 76 -2 85
-7 4 -8 3 -4 -4 4 -7 3 -12 -2 -12 -6 0 -12 7 -16 15 -3 8 -1 15 5 15 6 0 2
13 -7 29 -10 17 -22 27 -28 24 -5 -4 -7 1 -3 10 3 10 2 17 -3 17 -11 0 -52 75
-48 87 2 5 -8 26 -21 48 -14 22 -26 46 -27 54 -1 7 -8 19 -14 25 -8 8 -9 6 -4
-8 5 -13 4 -17 -4 -12 -7 4 -12 20 -12 35 0 16 -7 34 -15 41 -8 7 -15 19 -15
27 0 8 -8 27 -19 41 -10 15 -22 37 -25 50 -4 12 -13 22 -19 22 -7 0 -28 34
-47 76 -19 42 -40 80 -47 85 -6 6 -15 25 -19 42 -3 18 -10 37 -14 42 -7 9 -66
119 -128 237 -37 71 -47 76 -72 36z m35 -28 c3 -5 1 -10 -4 -10 -6 0 -11 5
-11 10 0 6 2 10 4 10 3 0 8 -4 11 -10z m64 -147 c12 -25 20 -47 19 -49 -9 -8
-27 15 -32 40 -3 16 -13 37 -22 48 -14 15 -15 18 -3 13 9 -3 25 -26 38 -52z
m41 -91 c0 -15 -2 -15 -10 -2 -13 20 -13 33 0 25 6 -3 10 -14 10 -23z m-254
-9 c-10 -10 -19 5 -10 18 6 11 8 11 12 0 2 -7 1 -15 -2 -18z m272 -38 c-3 -3
-9 2 -12 12 -6 14 -5 15 5 6 7 -7 10 -15 7 -18z m67 -93 c9 -20 21 -45 27 -56
7 -13 6 -17 -3 -14 -6 2 -20 26 -31 53 -10 27 -27 55 -36 62 -15 13 -15 13 5
3 12 -5 30 -27 38 -48z m75 -116 c0 -3 -4 -8 -10 -11 -5 -3 -10 -1 -10 4 0 6
5 11 10 11 6 0 10 -2 10 -4z m24 -49 c4 4 4 0 0 -10 -8 -22 -11 -22 -25 6 -11
19 -10 20 3 10 8 -7 18 -10 22 -6z m23 -70 c2 -17 1 -19 -7 -7 -11 17 -14 47
-3 36 4 -3 8 -17 10 -29z m73 -142 c14 -19 14 -19 -2 -6 -10 7 -18 18 -18 24
0 6 1 8 3 6 1 -2 9 -13 17 -24z m-649 -148 c-10 -9 -11 -8 -5 6 3 10 9 15 12
12 3 -3 0 -11 -7 -18z m-35 -25 c1 -15 -1 -21 -3 -14 -3 6 -9 10 -14 6 -13 -8
-11 10 3 24 7 7 12 12 13 12 0 0 1 -12 1 -28z m795 4 c-6 -7 -7 -17 -3 -22 4
-4 -1 -2 -11 5 -13 10 -15 17 -6 27 6 8 15 11 21 8 5 -4 5 -11 -1 -18z m-821
-53 c0 -8 -4 -11 -10 -8 -5 3 -11 0 -11 -7 -1 -7 -2 -17 -4 -23 -1 -5 -3 -16
-3 -22 -1 -7 -9 -13 -18 -13 -8 0 -12 -4 -9 -10 3 -5 -1 -10 -10 -10 -11 0
-15 -5 -11 -15 3 -8 -6 -27 -19 -42 -23 -27 -24 -27 -18 -5 3 13 11 26 17 28
14 5 15 42 2 64 -7 12 -6 13 4 3 10 -9 17 -7 32 13 11 13 18 31 15 38 -3 7 -1
18 5 24 14 14 38 4 38 -15z m24 -17 c-3 -14 -10 -26 -15 -26 -4 0 -3 14 3 31
12 36 22 33 12 -5z m835 4 c8 -24 7 -30 -4 -30 -16 0 -25 11 -30 40 -6 32 22
24 34 -10z m-866 -55 c-3 -9 -8 -14 -10 -11 -3 3 -2 9 2 15 9 16 15 13 8 -4z
m-96 -37 c-3 -8 -6 -5 -6 6 -1 11 2 17 5 13 3 -3 4 -12 1 -19z m1112 -180 c26
-49 26 -56 2 -34 -11 10 -17 24 -15 31 3 7 -4 18 -15 25 -11 6 -20 14 -19 18
1 4 -3 18 -10 32 -12 23 -11 23 11 -4 13 -15 34 -46 46 -68z m-1152 50 c-3 -8
-6 -5 -6 6 -1 11 2 17 5 13 3 -3 4 -12 1 -19z m479 -34 c-4 -9 -9 -15 -11 -12
-3 3 -3 13 1 22 4 9 9 15 11 12 3 -3 3 -13 -1 -22z m51 10 c-3 -3 -12 -4 -19
-1 -8 3 -5 6 6 6 11 1 17 -2 13 -5z m-564 -45 c-17 -29 -39 -46 -48 -37 -6 6
45 68 56 68 6 0 2 -14 -8 -31z m622 0 c6 -6 -7 -8 -35 -5 -29 2 -44 9 -46 19
-2 12 4 13 35 5 20 -5 40 -14 46 -19z m220 18 c12 16 13 15 8 -10 -3 -15 -9
-30 -14 -33 -5 -3 -9 -2 -8 3 3 19 -2 25 -15 14 -14 -12 -51 -10 -63 4 -5 4
-2 5 5 1 6 -4 12 -2 12 4 0 7 6 8 19 1 22 -12 32 -5 25 17 -4 13 -3 13 6 -1
11 -18 12 -18 25 0z m-895 -31 c0 -3 -4 -8 -10 -11 -5 -3 -10 -1 -10 4 0 6 5
11 10 11 6 0 10 -2 10 -4z m-14 -41 c13 -13 13 -15 1 -15 -8 0 -17 7 -21 15
-3 8 -3 15 0 15 3 0 12 -7 20 -15z"/>
<path d="M1520 570 c0 -13 11 -13 30 0 12 8 11 10 -7 10 -13 0 -23 -4 -23 -10z"/>
</g>
</svg>
